<svg
    width="196"
    height="34"
    viewBox="0 0 196 34"
    fill="none"
    xmlns="http://www.w3.org/2000/svg"
    
  >
    <path
      d="M59.4238 23.333C57.3636 23.333 55.6544 22.6251 54.1979 21.1689C52.7414 19.7119 52.0333 18.0026 52.0333 15.9427C52.0333 13.8828 52.7414 12.173 54.1976 10.717C55.6544 9.26026 57.3636 8.55243 59.4238 8.55243C61.484 8.55243 63.1933 9.26026 64.65 10.717C66.1063 12.173 66.8143 13.8825 66.8143 15.9427C66.8143 18.0026 66.1063 19.7121 64.65 21.1686C63.1933 22.6251 61.484 23.333 59.4238 23.333ZM59.4238 4.51862C56.2891 4.51862 53.5702 5.64769 51.3428 7.87483C49.1247 10.0932 48 12.8074 48 15.9427C48 19.0779 49.1247 21.7922 51.3428 24.0108C53.5699 26.2374 56.2888 27.3665 59.4238 27.3665C62.5601 27.3665 65.2754 26.2367 67.4896 24.0126C69.718 21.794 70.8479 19.0787 70.8479 15.9427C70.8479 12.8067 69.718 10.0914 67.4938 7.87638C65.2751 5.64847 62.5598 4.51862 59.4238 4.51862Z"
      fill="#50ADE5"
    />
    <path
      d="M85.006 4.55859C81.8702 4.55859 79.1306 5.68327 76.9128 7.90136C74.6859 10.1282 73.5315 12.8469 73.5315 15.9822V33.5956H77.6663V20.9326H86.9698V16.7978H77.6663V15.9822C77.6663 13.9222 78.3489 12.2127 79.8077 10.7539C81.2639 9.29041 82.9597 8.57896 85.0186 8.57896C85.2034 8.57896 85.3908 8.58619 85.5631 8.60067L86.9698 8.71799V4.62268L85.7169 4.57229C85.4892 4.56299 85.2432 4.55859 85.006 4.55859Z"
      fill="#50ADE5"
    />
    <path
      d="M94.2058 1.80899H90.3293V18.6037C90.3293 20.9981 91.1687 23.0753 92.8787 24.7747C94.5722 26.4685 96.6291 27.327 99.0213 27.327C100.753 27.327 102.323 26.8711 103.707 25.9723L104.284 25.5901V20.1416L102.128 22.1C101.242 22.9032 100.221 23.2937 99.005 23.2937C97.6987 23.2937 96.559 22.844 95.6346 21.9199C94.7102 20.9952 94.2058 19.9106 94.2058 18.6037V9.30341H104.284V5.16856H94.2058V1.80899Z"
      fill="#50ADE5"
    />
    <path
      d="M118.449 8.55235C120.509 8.55235 122.219 9.26019 123.675 10.7169C125.132 12.1732 125.84 13.8824 125.84 15.9429C125.84 18.0026 125.132 19.7121 123.675 21.1686C122.219 22.6251 120.509 23.3329 118.449 23.3329C116.389 23.3329 114.68 22.6251 113.223 21.1688C111.767 19.7123 111.059 18.0026 111.059 15.9429C111.059 13.8824 111.767 12.1732 113.223 10.7167C114.68 9.26019 116.389 8.55235 118.449 8.55235ZM118.449 4.5188C115.314 4.5188 112.595 5.64788 110.368 7.87475C108.15 10.0934 107.025 12.8079 107.025 15.9429C107.025 19.0774 108.149 21.7952 110.37 24.0252C112.596 26.2423 115.315 27.3667 118.449 27.3667C120.48 27.3667 122.348 26.8517 124.11 25.8316C124.71 25.4797 125.217 25.0817 125.734 24.64V26.618H129.869V15.9429C129.869 12.8066 128.741 10.0913 126.517 7.87656C124.298 5.64865 121.585 4.5188 118.449 4.5188Z"
      fill="#50ADE5"
    />
    <path d="M133.228 26.6181H137.105V0H133.228V26.6181Z" fill="#50ADE5" />
    <path
      d="M156.837 22.0825C155.141 23.7775 153.095 24.6252 150.697 24.6252C148.299 24.6252 146.253 23.7775 144.557 22.0825C142.862 20.3782 142.015 18.3317 142.015 15.9428C142.015 13.5448 142.862 11.4981 144.557 9.80302C146.253 8.09921 148.299 7.24717 150.697 7.24717C153.095 7.24717 155.141 8.09921 156.837 9.80302C158.532 11.4981 159.38 13.5448 159.38 15.9428C159.38 18.3317 158.532 20.3782 156.837 22.0825ZM150.697 5.81083C147.904 5.81083 145.464 6.7988 143.479 8.77551C141.503 10.7602 140.465 13.1497 140.465 15.9428V32.3036H142.015V21.1204C142.91 22.6314 144.118 23.8261 145.638 24.7043C147.193 25.6181 148.879 26.0744 150.697 26.0744C153.49 26.0744 155.875 25.0818 157.851 23.0971C159.836 21.1204 160.829 18.7361 160.829 15.9428C160.829 13.1497 159.836 10.7602 157.851 8.77551C155.875 6.7988 153.49 5.81083 150.697 5.81083Z"
      fill="#253E6A"
    />
    <path
      d="M166.04 8.3406C164.345 10.0359 163.464 12.078 163.464 14.4669V25.326H165.015V14.4669C165.015 12.4729 165.704 10.7693 167.118 9.35493C168.523 7.94107 170.161 7.23401 172.155 7.23401C172.91 7.23401 173.802 7.35237 174.318 7.58961V6.08762C173.802 5.89458 172.885 5.79767 172.13 5.79767C169.74 5.79767 167.735 6.64557 166.04 8.3406Z"
      fill="#253E6A"
    />
    <path
      d="M191.817 22.0825C190.122 23.7775 188.075 24.6251 185.677 24.6251C183.28 24.6251 181.233 23.7775 179.538 22.0825C177.843 20.3869 176.995 18.3407 176.995 15.9427C176.995 13.5448 177.843 11.498 179.538 9.80299C181.233 8.10796 183.28 7.26031 185.677 7.26031C188.075 7.26031 190.122 8.10796 191.817 9.80299C193.513 11.498 194.36 13.5448 194.36 15.9427C194.36 18.3407 193.513 20.3869 191.817 22.0825ZM192.832 8.7884C190.855 6.80367 188.471 5.81079 185.677 5.81079C182.885 5.81079 180.495 6.80367 178.51 8.7884C176.534 10.7649 175.546 13.1496 175.546 15.9427C175.546 18.7361 176.534 21.1203 178.51 23.0971C180.495 25.0818 182.885 26.0744 185.677 26.0744C188.471 26.0744 190.855 25.0818 192.832 23.0971C194.816 21.1203 195.809 18.7361 195.809 15.9427C195.809 13.1496 194.816 10.7649 192.832 8.7884Z"
      fill="#253E6A"
    />
    <path
      d="M19.7237 17.014C19.7237 14.4149 17.6167 12.3079 15.0177 12.3079C12.4186 12.3079 10.3116 14.4149 10.3116 17.014C10.3116 19.6131 12.4186 21.72 15.0177 21.72C17.6167 21.72 19.7237 19.6131 19.7237 17.014Z"
      fill="white"
    />
    <path
      d="M14.9968 1.99996C6.70491 1.99996 0 8.72192 0 17.014C0 21.0559 1.62818 24.7243 4.2126 27.4236V17.3222C4.2126 17.2199 4.20795 17.1171 4.20795 17.014C4.20795 16.9107 4.2126 16.8079 4.2126 16.7056V16.1069H4.21301C4.67965 10.628 9.32912 6.19695 14.9968 6.19695C20.9743 6.19695 25.8199 11.0396 25.8199 17.017C25.8199 22.9943 20.9528 27.8385 14.9752 27.8385C12.2965 27.8385 9.79494 26.8633 7.93416 25.2512V30.288C10.1051 31.3982 12.4393 32.0278 14.9752 32.0278C23.2672 32.0278 30 25.3059 30 17.014C30 8.72192 23.2888 1.99996 14.9968 1.99996Z"
      fill="#253E6A"
    />
    <path
      d="M15.6921 18.6105C15.6921 18.1943 16.0295 17.8569 16.4457 17.8569C16.6353 17.8569 16.808 17.9275 16.9404 18.0431C17.1068 17.7348 17.2015 17.3823 17.2015 17.0075C17.2015 15.8015 16.2237 14.8238 15.0177 14.8238C14.9951 14.8238 14.9732 14.8265 14.9507 14.8272C14.9851 14.94 15.0038 15.0594 15.0038 15.1835C15.0038 15.8581 14.4569 16.4051 13.7822 16.4051C13.4922 16.4051 13.2261 16.3035 13.0167 16.1347C12.8999 16.4022 12.8341 16.697 12.8341 17.0075C12.8341 18.2135 13.8117 19.1912 15.0177 19.1912C15.3026 19.1912 15.5741 19.1349 15.8237 19.0357C15.7407 18.9146 15.6921 18.7682 15.6921 18.6105Z"
      fill="#231F20"
    />
    <path
      d="M16.4456 19.3641C16.0294 19.3641 15.692 19.0267 15.692 18.6105C15.692 18.1943 16.0294 17.8569 16.4456 17.8569C16.8618 17.8569 17.1992 18.1943 17.1992 18.6105C17.1992 19.0267 16.8618 19.3641 16.4456 19.3641ZM13.7822 16.4051C13.1074 16.4051 12.5605 15.858 12.5605 15.1835C12.5605 14.5088 13.1074 13.9618 13.7822 13.9618C14.4569 13.9618 15.0038 14.5088 15.0038 15.1835C15.0038 15.858 14.4569 16.4051 13.7822 16.4051ZM14.9969 10.0241C11.1366 10.0241 8.00705 13.1536 8.00705 17.014C8.00705 20.8744 11.1366 24.0039 14.9969 24.0039C18.8574 24.0039 21.9869 20.8744 21.9869 17.014C21.9869 13.1536 18.8574 10.0241 14.9969 10.0241Z"
      fill="#50ADE5"
    />
    <path
      d="M15.6921 18.6105C15.6921 18.1943 16.0295 17.8569 16.4457 17.8569C16.6353 17.8569 16.808 17.9275 16.9404 18.0431C17.1068 17.7348 17.2015 17.3823 17.2015 17.0075C17.2015 15.8015 16.2237 14.8238 15.0177 14.8238C14.9951 14.8238 14.9732 14.8265 14.9507 14.8272C14.9851 14.94 15.0038 15.0594 15.0038 15.1835C15.0038 15.8581 14.4569 16.4051 13.7822 16.4051C13.4922 16.4051 13.2261 16.3035 13.0167 16.1347C12.8999 16.4022 12.8341 16.697 12.8341 17.0075C12.8341 18.2135 13.8117 19.1912 15.0177 19.1912C15.3026 19.1912 15.5741 19.1349 15.8237 19.0357C15.7407 18.9146 15.6921 18.7682 15.6921 18.6105Z"
      fill="#231F20"
    />
  </svg>