<svg width="16" height="16" viewBox="0 0 16 16" fill="none" xmlns="http://www.w3.org/2000/svg">
<path d="M15.5112 6.02703C14.9096 5.04188 14.1507 4.1619 13.2647 3.422L15.1307 1.55603C15.2521 1.43034 15.3193 1.262 15.3177 1.08726C15.3162 0.912532 15.2461 0.745385 15.1226 0.621826C14.999 0.498266 14.8319 0.428179 14.6571 0.426661C14.4824 0.425143 14.3141 0.492314 14.1884 0.613708L12.1591 2.64562C10.9012 1.89845 9.46307 1.50902 8 1.51937C3.8742 1.51937 1.52307 4.34366 0.488783 6.02703C0.169253 6.54385 0 7.13945 0 7.74706C0 8.35468 0.169253 8.95028 0.488783 9.46709C1.0904 10.4522 1.84927 11.3322 2.73528 12.0721L0.869308 13.9381C0.805659 13.9996 0.754889 14.0731 0.719963 14.1544C0.685037 14.2357 0.666653 14.3232 0.665884 14.4117C0.665115 14.5001 0.681976 14.5879 0.715484 14.6698C0.748993 14.7517 0.798476 14.8261 0.861048 14.8887C0.92362 14.9513 0.998027 15.0007 1.07993 15.0342C1.16183 15.0678 1.24958 15.0846 1.33807 15.0838C1.42656 15.0831 1.514 15.0647 1.59531 15.0298C1.67661 14.9948 1.75015 14.9441 1.81163 14.8804L3.84554 12.8465C5.10192 13.5936 6.53832 13.9837 8 13.9748C12.1258 13.9748 14.4769 11.1505 15.5112 9.46709C15.8307 8.95028 16 8.35468 16 7.74706C16 7.13945 15.8307 6.54385 15.5112 6.02703ZM1.62436 8.76935C1.43452 8.46216 1.33397 8.10818 1.33397 7.74706C1.33397 7.38595 1.43452 7.03197 1.62436 6.72478C2.51337 5.28131 4.52262 2.85221 8 2.85221C9.10644 2.84601 10.1973 3.11267 11.1762 3.62859L9.83465 4.97009C9.19485 4.54532 8.42778 4.35499 7.66361 4.43139C6.89945 4.5078 6.18525 4.84623 5.64221 5.38927C5.09917 5.93231 4.76073 6.64651 4.68433 7.41068C4.60792 8.17484 4.79825 8.94191 5.22303 9.58172L3.6836 11.1211C2.8673 10.4612 2.17072 9.66565 1.62436 8.76935ZM9.99926 7.74706C9.99926 8.2773 9.78862 8.78582 9.41369 9.16075C9.03876 9.53569 8.53024 9.74632 8 9.74632C7.70312 9.74517 7.41035 9.67682 7.14365 9.5464L9.79933 6.89072C9.92976 7.15741 9.99811 7.45018 9.99926 7.74706ZM6.00074 7.74706C6.00074 7.21683 6.21138 6.70831 6.58631 6.33337C6.96124 5.95844 7.46976 5.74781 8 5.74781C8.29688 5.74895 8.58965 5.81731 8.85635 5.94773L6.20067 8.60341C6.07024 8.33671 6.00189 8.04395 6.00074 7.74706ZM14.3756 8.76935C13.4866 10.2128 11.4774 12.6419 8 12.6419C6.89356 12.6481 5.80266 12.3815 4.82384 11.8655L6.16535 10.524C6.80515 10.9488 7.57222 11.1391 8.33639 11.0627C9.10055 10.9863 9.81475 10.6479 10.3578 10.1049C10.9008 9.56181 11.2393 8.84762 11.3157 8.08345C11.3921 7.31928 11.2017 6.55222 10.777 5.91241L12.3164 4.37298C13.1327 5.03292 13.8293 5.82847 14.3756 6.72478C14.5655 7.03197 14.666 7.38595 14.666 7.74706C14.666 8.10818 14.5655 8.46216 14.3756 8.76935Z" fill="#4B5563"/>
</svg>
